<svg width="39" height="40" viewBox="0 0 39 40" fill="none" xmlns="http://www.w3.org/2000/svg">
  <style>
    path {
      fill: #101223;
    }

    @media (prefers-color-scheme: dark) {
      path {
        fill: #fdfdfd;
      }
    }
  </style>

  <path d="M4.90741 18.2939V38.7832C4.90741 39.3865 5.43352 39.903 6.02718 39.903H10.0736C10.676 39.9065 11.1952 39.3886 11.1924 38.7843V29.1412C13.603 31.6954 16.2584 36.3841 18.4126 36.3881C20.561 36.3881 23.2451 31.6954 25.6555 29.1412V38.7843C25.6555 39.3792 26.1748 39.9036 26.7748 39.9036H31.2534C31.8559 39.9036 32.3715 39.3873 32.3715 38.7854V18.2933C32.3715 17.8641 32.1125 17.6911 31.7694 17.6912C29.1856 18.1219 27.4613 18.7323 26.6017 19.5853C22.7224 23.0297 21.0059 25.1811 18.4236 28.1945C15.8414 25.1817 14.1105 23.0335 10.6737 19.5836C9.81459 18.7301 7.66319 18.1216 5.51039 17.6916C5.16524 17.6916 4.90741 17.9506 4.90741 18.2939Z" fill="currentColor"/>
  <path d="M37.2778 8.47811C33.4915 6.67561 21.0099 0.990013 19.2927 0.219163C18.9242 0.0537451 18.5957 1.11733e-05 18.4241 1.11733e-05C18.2531 1.11733e-05 17.9927 -0.00503434 17.5508 0.19931C15.8388 0.990983 4.22049 6.67237 0.429832 8.4802C0.429832 8.4802 4.21605e-05 8.64946 3.06581e-09 9.25334C-4.19848e-05 9.85479 0.431213 10.0292 0.431213 10.0292L4.90814 11.9276V13.9932C4.90814 14.5114 5.4245 15.0229 6.28539 15.2808C10.246 16.2279 13.2595 18.2934 16.2706 20.8782C16.7887 21.2214 17.1327 21.7378 18.4241 21.7377C19.7166 21.738 20.0713 21.2207 20.5842 20.8811C23.5907 18.2932 27.4699 16.1403 31.3453 15.1984C32.1998 14.94 32.3714 14.5015 32.3684 13.9891V11.9229L35.212 10.8037V21.7377C33.7508 22.2547 33.4901 23.46 33.4901 24.2344C33.4901 25.6119 34.3523 26.9877 36.2454 26.9903C38.1412 26.9903 39.0026 25.5998 39 24.2347C39 23.4544 38.8301 22.2541 37.2778 21.738V10.1153C37.2778 10.1153 37.7086 9.85714 37.7086 9.2544C37.7086 8.65125 37.2778 8.47811 37.2778 8.47811Z" fill="currentColor"/>
</svg>
