<svg width="7" height="12" viewBox="0 0 7 12" fill="currentColor" xmlns="http://www.w3.org/2000/svg">
<path d="M6.76617 0.237154C6.92205 0.395257 7 0.582451 7 0.798736C7 1.0146 6.92205 1.20158 6.76617 1.35968L2.19861 5.9921L6.78176 10.6403C6.92725 10.7879 7 10.9723 7 11.1937C7 11.415 6.92206 11.6047 6.76617 11.7628C6.61028 11.9209 6.4257 12 6.21245 12C5.99961 12 5.81524 11.9209 5.65935 11.7628L0.421477 6.43478C0.359121 6.37154 0.314849 6.30303 0.28866 6.22925C0.262886 6.15547 0.249999 6.07642 0.249999 5.9921C0.249999 5.90777 0.262886 5.82872 0.28866 5.75494C0.314849 5.68116 0.359121 5.61265 0.421477 5.54941L5.67494 0.221344C5.82044 0.0737811 5.99961 8.74571e-08 6.21245 6.885e-08C6.4257 5.02065e-08 6.61028 0.0790511 6.76617 0.237154Z" fill="currentColor"/>
</svg>
