<svg width="16" height="10" viewBox="0 0 16 10" fill="currentColor" xmlns="http://www.w3.org/2000/svg">
<path d="M0.316205 0.811778C0.527009 0.603925 0.776601 0.499999 1.06498 0.499999C1.3528 0.499999 1.60211 0.603925 1.81291 0.811778L7.98946 6.90185L14.1871 0.790993C14.3838 0.596998 14.6298 0.5 14.9249 0.5C15.22 0.5 15.473 0.603926 15.6838 0.811778C15.8946 1.01963 16 1.26573 16 1.55007C16 1.83386 15.8946 2.07968 15.6838 2.28753L8.57971 9.27136C8.49539 9.3545 8.40404 9.41353 8.30567 9.44845C8.20729 9.48282 8.10189 9.5 7.98946 9.5C7.87703 9.5 7.77163 9.48282 7.67325 9.44845C7.57488 9.41353 7.48353 9.3545 7.39921 9.27136L0.295125 2.26674C0.0983753 2.07275 -5.83047e-08 1.83386 -4.59e-08 1.55007C-3.3471e-08 1.26573 0.105402 1.01963 0.316205 0.811778Z" fill="currentColor"/>
</svg>
