<svg width="22" height="10" viewBox="0 0 22 10" fill="currentColor" xmlns="http://www.w3.org/2000/svg">
<path d="M18.6838 9.18822C18.473 9.39607 18.2234 9.5 17.935 9.5C17.6472 9.5 17.3979 9.39607 17.1871 9.18822L11.0105 3.09815L4.81291 9.20901C4.61616 9.403 4.37022 9.5 4.0751 9.5C3.77997 9.5 3.52701 9.39607 3.31621 9.18822C3.1054 8.98037 3 8.73427 3 8.44993C3 8.16614 3.1054 7.92032 3.31621 7.71247L10.4203 0.728637C10.5046 0.645496 10.596 0.586467 10.6943 0.551547C10.7927 0.517182 10.8981 0.5 11.0105 0.5C11.123 0.5 11.2284 0.517182 11.3267 0.551547C11.4251 0.586467 11.5165 0.645496 11.6008 0.728637L18.7049 7.73326C18.9016 7.92725 19 8.16614 19 8.44993C19 8.73427 18.8946 8.98037 18.6838 9.18822Z" fill="currentColor"/>
</svg>
