<svg width="7" height="12" viewBox="0 0 7 12" fill="currentColor" xmlns="http://www.w3.org/2000/svg">
<path d="M0.483834 11.7628C0.327945 11.6047 0.25 11.4175 0.25 11.2013C0.25 10.9854 0.327945 10.7984 0.483834 10.6403L5.05139 6.00791L0.468245 1.35968C0.322748 1.21212 0.25 1.02767 0.25 0.806324C0.25 0.58498 0.327945 0.395257 0.483834 0.237154C0.639723 0.0790514 0.824296 0 1.03755 0C1.25039 0 1.43476 0.0790514 1.59065 0.237154L6.82852 5.56522C6.89088 5.62846 6.93515 5.69697 6.96134 5.77075C6.98711 5.84453 7 5.92358 7 6.00791C7 6.09223 6.98711 6.17128 6.96134 6.24506C6.93515 6.31884 6.89088 6.38735 6.82852 6.45059L1.57506 11.7787C1.42956 11.9262 1.25039 12 1.03755 12C0.824296 12 0.639723 11.9209 0.483834 11.7628Z" fill="currentColor"/>
</svg>
