<svg width="16" height="17" viewBox="0 0 16 17" fill="none" xmlns="http://www.w3.org/2000/svg">
<path fill-rule="evenodd" clip-rule="evenodd" d="M8.33333 1C4.28333 1 1 4.28333 1 8.33333C1 12.3833 4.28333 15.6667 8.33333 15.6667C12.3833 15.6667 15.6667 12.3833 15.6667 8.33333C15.6667 4.28333 12.3833 1 8.33333 1ZM5.66667 7.66667C5.48986 7.66667 5.32029 7.7369 5.19526 7.86193C5.07024 7.98695 5 8.15652 5 8.33333C5 8.51014 5.07024 8.67971 5.19526 8.80474C5.32029 8.92976 5.48986 9 5.66667 9H11C11.1768 9 11.3464 8.92976 11.4714 8.80474C11.5964 8.67971 11.6667 8.51014 11.6667 8.33333C11.6667 8.15652 11.5964 7.98695 11.4714 7.86193C11.3464 7.7369 11.1768 7.66667 11 7.66667H5.66667Z" fill="#CC3535"/>
</svg>
