<svg width="48" height="49" viewBox="0 0 48 49" fill="none" xmlns="http://www.w3.org/2000/svg">
<path d="M24 12.5C24.3956 12.5 24.7822 12.6173 25.1111 12.8371C25.44 13.0568 25.6964 13.3692 25.8478 13.7346C25.9991 14.1001 26.0387 14.5022 25.9616 14.8902C25.8844 15.2781 25.6939 15.6345 25.4142 15.9142C25.1345 16.1939 24.7781 16.3844 24.3902 16.4616C24.0022 16.5387 23.6001 16.4991 23.2346 16.3478C22.8692 16.1964 22.5568 15.94 22.3371 15.6111C22.1173 15.2822 22 14.8956 22 14.5C22 13.9696 22.2107 13.4609 22.5858 13.0858C22.9609 12.7107 23.4696 12.5 24 12.5ZM12 28.5H36V34.5H12V28.5ZM40 12.5H32V6.5H16V12.5H8C6.93913 12.5 5.92172 12.9214 5.17157 13.6716C4.42143 14.4217 4 15.4391 4 16.5V38.5C4 39.5609 4.42143 40.5783 5.17157 41.3284C5.92172 42.0786 6.93913 42.5 8 42.5H40C41.0609 42.5 42.0783 42.0786 42.8284 41.3284C43.5786 40.5783 44 39.5609 44 38.5V16.5C44 15.4391 43.5786 14.4217 42.8284 13.6716C42.0783 12.9214 41.0609 12.5 40 12.5ZM20 10.5H28V20.5H20V10.5ZM40 38.5H8V20.5H16C16 21.5609 16.4214 22.5783 17.1716 23.3284C17.9217 24.0786 18.9391 24.5 20 24.5H28C29.0609 24.5 30.0783 24.0786 30.8284 23.3284C31.5786 22.5783 32 21.5609 32 20.5H40V38.5Z" fill="#388883"/>
</svg>
