<svg width="16" height="17" viewBox="0 0 16 17" fill="none" xmlns="http://www.w3.org/2000/svg">
<path d="M8 2C4.13438 2 1 5.13438 1 9C1 12.8656 4.13438 16 8 16C11.8656 16 15 12.8656 15 9C15 5.13438 11.8656 2 8 2ZM11 9.375C11 9.44375 10.9438 9.5 10.875 9.5H8.5V11.875C8.5 11.9438 8.44375 12 8.375 12H7.625C7.55625 12 7.5 11.9438 7.5 11.875V9.5H5.125C5.05625 9.5 5 9.44375 5 9.375V8.625C5 8.55625 5.05625 8.5 5.125 8.5H7.5V6.125C7.5 6.05625 7.55625 6 7.625 6H8.375C8.44375 6 8.5 6.05625 8.5 6.125V8.5H10.875C10.9438 8.5 11 8.55625 11 8.625V9.375Z" fill="#468E03"/>
</svg>
