<svg width="17" height="17" viewBox="0 0 17 17" fill="currentColor" xmlns="http://www.w3.org/2000/svg">
<path d="M7.34236 14.184C8.86049 14.1837 10.3349 13.6755 11.5307 12.7403L15.2906 16.5L16.5 15.2907L12.7401 11.531C13.6758 10.3351 14.1844 8.86043 14.1847 7.34199C14.1847 3.56949 11.1151 0.5 7.34236 0.5C3.56965 0.5 0.5 3.56949 0.5 7.34199C0.5 11.1145 3.56965 14.184 7.34236 14.184ZM7.34236 2.2105C10.1725 2.2105 12.4741 4.51197 12.4741 7.34199C12.4741 10.172 10.1725 12.4735 7.34236 12.4735C4.51219 12.4735 2.21059 10.172 2.21059 7.34199C2.21059 4.51197 4.51219 2.2105 7.34236 2.2105Z" fill="currentColor"/>
<path d="M8.55247 6.13262C8.87663 6.45762 9.05539 6.88695 9.05539 7.34194H10.766C10.7667 6.89245 10.6784 6.44726 10.506 6.03212C10.3337 5.61697 10.0808 5.2401 9.76186 4.9233C8.46694 3.63016 6.2218 3.63016 4.92773 4.9233L6.13541 6.13433C6.78544 5.48605 7.90587 5.48776 8.55247 6.13262Z" fill="currentColor"/>
</svg>
