<svg width="38" height="34" viewBox="0 0 38 34" fill="currentColor" xmlns="http://www.w3.org/2000/svg">
<path d="M36.1058 23.8678H11.4501L12.6881 21.3642L33.2572 21.3272C33.9528 21.3272 34.549 20.8339 34.6732 20.1515L37.5218 4.32013C37.5963 3.90492 37.4845 3.47738 37.2112 3.15261C37.0762 2.99278 36.9077 2.86403 36.7175 2.77529C36.5274 2.68656 36.32 2.63996 36.1099 2.63874L9.94306 2.55241L9.71948 1.50822C9.57871 0.842243 8.97422 0.357147 8.28693 0.357147H1.89012C1.5025 0.357147 1.13075 0.510038 0.856662 0.782186C0.582572 1.05433 0.428589 1.42345 0.428589 1.80832C0.428589 2.1932 0.582572 2.56231 0.856662 2.83446C1.13075 3.10661 1.5025 3.2595 1.89012 3.2595H7.10279L8.07991 7.87201L10.4854 19.4362L7.38847 24.4557C7.22765 24.6712 7.13077 24.9272 7.10882 25.1945C7.08687 25.4619 7.14072 25.73 7.26427 25.9685C7.51269 26.4577 8.01366 26.7661 8.56847 26.7661H11.1686C10.6143 27.4971 10.3149 28.3875 10.3157 29.3025C10.3157 31.6294 12.2202 33.5204 14.5637 33.5204C16.9071 33.5204 18.8116 31.6294 18.8116 29.3025C18.8116 28.3858 18.5052 27.4937 17.9587 26.7661H24.6288C24.0745 27.4971 23.7751 28.3875 23.7759 29.3025C23.7759 31.6294 25.6804 33.5204 28.0239 33.5204C30.3673 33.5204 32.2718 31.6294 32.2718 29.3025C32.2718 28.3858 31.9654 27.4937 31.4189 26.7661H36.1099C36.9131 26.7661 37.5714 26.1165 37.5714 25.3149C37.569 24.9304 37.4136 24.5625 37.139 24.2914C36.8644 24.0203 36.493 23.868 36.1058 23.8678ZM10.5517 5.41365L34.3917 5.49176L32.0565 18.4742L13.3298 18.5071L10.5517 5.41365ZM14.5637 30.6016C13.8432 30.6016 13.2553 30.0179 13.2553 29.3025C13.2553 28.5872 13.8432 28.0035 14.5637 28.0035C15.2841 28.0035 15.872 28.5872 15.872 29.3025C15.872 29.6471 15.7342 29.9775 15.4888 30.2211C15.2434 30.4647 14.9107 30.6016 14.5637 30.6016ZM28.0239 30.6016C27.3034 30.6016 26.7155 30.0179 26.7155 29.3025C26.7155 28.5872 27.3034 28.0035 28.0239 28.0035C28.7443 28.0035 29.3322 28.5872 29.3322 29.3025C29.3322 29.6471 29.1944 29.9775 28.949 30.2211C28.7036 30.4647 28.3708 30.6016 28.0239 30.6016Z" fill="currentColor"/>
</svg>
