<svg width="16" height="17" viewBox="0 0 16 17" fill="none" xmlns="http://www.w3.org/2000/svg">
<path d="M14.1887 6.01714L10.2215 5.44058L8.4481 1.84527C8.39966 1.74683 8.31998 1.66714 8.22154 1.61871C7.97466 1.49683 7.67466 1.59839 7.55123 1.84527L5.77779 5.44058L1.8106 6.01714C1.70123 6.03277 1.60123 6.08433 1.52466 6.16246C1.4321 6.25759 1.3811 6.38558 1.38286 6.5183C1.38461 6.65103 1.43899 6.77762 1.53404 6.87027L4.40435 9.66871L3.72623 13.6203C3.71032 13.7122 3.7205 13.8067 3.75559 13.8932C3.79068 13.9796 3.84929 14.0545 3.92477 14.1093C4.00025 14.1641 4.08958 14.1967 4.18263 14.2033C4.27568 14.21 4.36873 14.1904 4.45123 14.1468L7.99966 12.2812L11.5481 14.1468C11.645 14.1984 11.7575 14.2156 11.8653 14.1968C12.1372 14.15 12.32 13.8921 12.2731 13.6203L11.595 9.66871L14.4653 6.87027C14.5434 6.79371 14.595 6.69371 14.6106 6.58433C14.6528 6.31089 14.4622 6.05777 14.1887 6.01714Z" fill="#F7A007"/>
</svg>
