<?xml version="1.0" standalone="no"?>
<!DOCTYPE svg PUBLIC "-//W3C//DTD SVG 20010904//EN"
 "http://www.w3.org/TR/2001/REC-SVG-20010904/DTD/svg10.dtd">
<svg version="1.0" xmlns="http://www.w3.org/2000/svg"
 width="1000.000000pt" height="1000.000000pt" viewBox="0 0 1000.000000 1000.000000"
 preserveAspectRatio="xMidYMid meet">
<metadata>
Created by potrace 1.14, written by Peter Selinger 2001-2017
</metadata>
<g transform="translate(0.000000,1000.000000) scale(0.100000,-0.100000)"
fill="#000000" stroke="none">
<path d="M4340 9974 c-25 -13 -117 -58 -205 -100 -353 -169 -456 -218 -945
-456 -344 -168 -517 -252 -625 -303 -60 -29 -227 -110 -370 -180 -143 -70
-309 -151 -370 -180 -60 -29 -204 -99 -320 -155 -115 -56 -275 -134 -355 -172
-80 -39 -219 -106 -310 -150 -91 -45 -214 -104 -275 -133 -461 -220 -482 -232
-509 -277 -49 -85 -43 -201 14 -270 34 -41 6 -28 775 -353 127 -53 268 -113
315 -134 l85 -37 1 -267 c1 -317 5 -335 80 -417 80 -86 164 -127 372 -181 353
-91 806 -275 1106 -448 49 -28 91 -51 93 -51 2 0 22 -12 46 -27 23 -14 58 -36
77 -48 208 -130 437 -291 645 -452 180 -141 238 -187 276 -224 9 -9 24 -21 32
-25 8 -5 33 -25 54 -44 124 -115 309 -229 395 -245 24 -4 50 -10 58 -12 40
-10 222 -8 289 3 87 14 141 32 206 68 43 25 181 124 215 156 62 57 359 289
475 370 182 127 500 328 645 408 212 116 363 191 550 275 129 57 211 91 426
173 83 32 286 96 424 133 263 72 326 107 374 211 19 42 20 66 23 335 1 160 2
295 2 301 1 6 34 23 74 39 39 15 86 34 102 41 17 7 89 35 160 63 72 27 182 70
245 95 63 25 118 46 121 46 3 0 6 -614 6 -1363 l1 -1364 -36 -13 c-123 -44
-263 -169 -320 -284 -56 -114 -75 -210 -70 -356 4 -106 10 -138 35 -213 40
-113 84 -185 160 -262 255 -255 784 -239 1008 31 132 159 188 368 161 597 -26
213 -138 370 -331 462 -39 19 -76 35 -82 35 -6 0 -9 529 -9 1451 l0 1452 38
40 c50 53 73 128 64 210 -9 84 -46 136 -126 174 -25 12 -90 42 -145 68 -55 26
-138 65 -185 87 -47 22 -141 66 -210 98 -157 72 -235 108 -379 176 -62 30
-115 54 -116 54 -3 0 -355 161 -470 215 -170 79 -244 113 -382 176 -85 38
-162 74 -171 79 -10 4 -44 20 -77 35 -70 32 -267 122 -375 172 -41 19 -168 77
-281 128 -113 52 -237 108 -275 126 -38 17 -112 50 -164 74 -52 24 -129 58
-170 78 -41 19 -91 41 -110 50 -19 8 -79 36 -133 61 -53 25 -99 46 -101 46 -2
0 -46 20 -98 44 -88 41 -122 56 -228 104 -25 11 -125 56 -224 101 l-178 81
-227 -1 c-217 -1 -228 -2 -271 -25z"/>
<path d="M1356 5626 c-42 -12 -83 -48 -98 -86 -7 -16 -10 -912 -10 -2626 l-1
-2600 22 -50 c29 -64 92 -127 155 -155 50 -22 57 -22 586 -23 294 -1 555 2
580 6 95 17 196 112 217 203 7 29 10 476 11 1252 0 665 1 1212 1 1217 1 5 10
-2 22 -15 11 -13 35 -40 53 -59 81 -88 236 -286 518 -661 168 -223 345 -455
393 -515 349 -431 587 -618 802 -629 172 -9 360 104 614 371 116 122 291 343
604 759 298 397 414 545 549 698 l51 59 5 -1234 c3 -678 8 -1243 12 -1256 20
-67 91 -141 167 -175 45 -20 65 -21 662 -21 l616 0 56 28 c67 32 120 90 146
160 18 50 19 120 19 2644 0 2054 -2 2601 -12 2630 -25 70 -90 96 -196 76 -36
-7 -82 -15 -102 -18 -21 -3 -59 -11 -85 -17 -27 -6 -59 -13 -72 -15 -135 -26
-373 -94 -503 -143 -224 -84 -351 -157 -478 -274 -25 -23 -70 -64 -100 -92
-193 -175 -278 -254 -393 -365 -277 -266 -534 -531 -757 -780 -41 -46 -82 -91
-90 -100 -8 -8 -40 -45 -70 -80 -30 -36 -58 -67 -61 -70 -5 -4 -215 -248 -366
-426 -49 -58 -69 -82 -131 -152 -25 -30 -51 -60 -57 -68 -8 -12 -29 7 -105 97
-52 61 -102 119 -110 129 -41 47 -226 264 -255 299 -11 13 -25 29 -30 35 -6 6
-55 63 -109 126 -143 168 -188 219 -216 250 -14 15 -50 56 -80 90 -30 35 -59
68 -65 74 -5 6 -44 50 -85 96 -41 47 -81 92 -90 100 -8 8 -39 42 -69 75 -49
54 -239 258 -349 374 -59 62 -418 423 -436 438 -20 17 -153 103 -159 103 -3 0
-43 18 -90 40 -89 41 -205 84 -342 126 -106 33 -427 114 -515 130 -14 3 -50
11 -81 18 -41 9 -65 10 -93 2z"/>
</g>
</svg>
